<?xml version="1.0" encoding="utf-8"?>
<!-- Generator: Adobe Illustrator 22.1.0, SVG Export Plug-In . SVG Version: 6.00 Build 0)  -->
<svg version="1.1" id="Слой_1" xmlns="http://www.w3.org/2000/svg" xmlns:xlink="http://www.w3.org/1999/xlink" x="0px" y="0px"
	 viewBox="0 0 224.5 54.3" style="enable-background:new 0 0 224.5 54.3;" xml:space="preserve">
<style type="text/css">
	.st0{clip-path:url(#SVGID_2_);fill:#FFFFFF;}
	.st1{clip-path:url(#SVGID_4_);fill:#FFFFFF;}
	.st2{clip-path:url(#SVGID_6_);fill:#FFFFFF;}
	.st3{clip-path:url(#SVGID_8_);fill:#FFFFFF;}
	.st4{clip-path:url(#SVGID_10_);fill:#FFFFFF;}
	.st5{clip-path:url(#SVGID_12_);fill:#FFFFFF;}
	.st6{clip-path:url(#SVGID_14_);fill:#FFFFFF;}
	.st7{clip-path:url(#SVGID_16_);fill:#FFFFFF;}
	.st8{clip-path:url(#SVGID_18_);fill:#FFFFFF;}
	.st9{clip-path:url(#SVGID_20_);fill:#FFFFFF;}
	.st10{clip-path:url(#SVGID_22_);fill:#FFFFFF;}
	.st11{clip-path:url(#SVGID_24_);fill:#FFFFFF;}
	.st12{clip-path:url(#SVGID_26_);fill:#FFFFFF;}
	.st13{clip-path:url(#SVGID_28_);fill:#FFFFFF;}
	.st14{clip-path:url(#SVGID_30_);fill:#FFFFFF;}
	.st15{clip-path:url(#SVGID_32_);fill:#FFFFFF;}
	.st16{clip-path:url(#SVGID_34_);fill:#FFFFFF;}
	.st17{clip-path:url(#SVGID_36_);fill:#FFFFFF;}
	.st18{clip-path:url(#SVGID_38_);fill:#FFFFFF;}
	.st19{fill:#DC291A;}
	.st20{fill:#FFFFFF;}
</style>
<g>
	<g>
		<g>
			<defs>
				<rect id="SVGID_1_" x="97.1" y="8" width="127.1" height="39.7"/>
			</defs>
			<clipPath id="SVGID_2_">
				<use xlink:href="#SVGID_1_"  style="overflow:visible;"/>
			</clipPath>
			<path class="st0" d="M106.8,29.3c0.9,0,1.9,0.1,3.2,0.2c0.8,0.1,1.5,0.1,2.1,0.1c1.3,0,2-0.7,2-2.1c0-1.1-0.5-1.5-1.5-1.5
				c-0.2,0-0.5,0-1,0.1c-0.5,0.1-0.8,0.1-1.1,0.1c-0.6,0-1.3-0.4-1.3-2.2v-8.7c0-0.9,0.1-1.4,0.4-1.7c0.3-0.4,0.8-0.6,1.4-0.6
				c1.4,0,1.6,0.9,1.6,1.3c0,0.2,0,0.6-0.1,1c-0.1,0.4-0.1,0.7-0.1,1c0,1.6,0.7,2.3,2,2.3c0.6,0,1.1-0.2,1.4-0.6
				c0.4-0.4,0.6-1,0.6-1.6c0-0.1,0-0.6-0.1-1.4c-0.1-0.7-0.1-1.2-0.1-1.5c0-0.3,0-0.8,0.1-1.3c0.1-0.6,0.1-1.1,0.1-1.3
				c0-0.8-0.4-1.1-1.2-1.1c-0.5,0-1.1,0-1.7,0.1c-1.6,0.1-3.9,0.2-6.9,0.2s-5.3-0.1-6.9-0.2c-0.6,0-1.2,0-1.6,0
				c-0.8,0-1.1,0.3-1.1,1.1c0,0.3,0,0.7,0.1,1.2c0.1,0.8,0.1,1.2,0.1,1.5c0,0.5,0,1-0.1,1.5c-0.1,0.7-0.1,1.2-0.1,1.4
				c0,0.7,0.2,1.2,0.6,1.6c0.4,0.4,0.9,0.6,1.4,0.6c1.3,0,2-0.8,2-2.4c0-0.2,0-0.5-0.1-0.9c-0.1-0.5-0.1-0.8-0.1-1
				c0-0.6,0.3-1.3,1.7-1.3c0.8,0,1.7,0.4,1.7,2.3V24c0,1.8-0.7,2.2-1.3,2.2c-0.3,0-0.6,0-1.1-0.1c-0.4-0.1-0.8-0.1-1-0.1
				c-1.1,0-1.6,0.6-1.6,1.7c0,1.3,0.7,1.9,2,1.9c0.6,0,1.2,0,2.1-0.1C104.8,29.4,106,29.3,106.8,29.3"/>
		</g>
	</g>
	<g>
		<g>
			<defs>
				<rect id="SVGID_3_" x="97.1" y="8" width="127.1" height="39.7"/>
			</defs>
			<clipPath id="SVGID_4_">
				<use xlink:href="#SVGID_3_"  style="overflow:visible;"/>
			</clipPath>
			<path class="st1" d="M124.9,26.8c-1.1,0-1.8-0.4-2.4-1.2c-0.6-0.8-0.9-1.9-0.9-3.4c0-1.4,0.3-2.5,0.9-3.4
				c0.6-0.9,1.3-1.2,2.3-1.2c2.1,0,3.2,1.5,3.2,4.7C128,25.3,127,26.8,124.9,26.8 M124.9,14.3c-2.4,0-4.2,0.7-5.6,2
				s-1.9,3.4-1.9,5.8c0,2.5,0.7,4.4,2,5.8c1.3,1.3,3.2,2,5.7,2c2.3,0,4.1-0.7,5.5-2.1c1.3-1.4,1.9-3.4,1.9-5.9c0-2.4-0.7-4.3-2-5.7
				C129.1,15,127.2,14.3,124.9,14.3"/>
		</g>
	</g>
	<g>
		<g>
			<defs>
				<rect id="SVGID_5_" x="97.1" y="8" width="127.1" height="39.7"/>
			</defs>
			<clipPath id="SVGID_6_">
				<use xlink:href="#SVGID_5_"  style="overflow:visible;"/>
			</clipPath>
			<path class="st2" d="M152.7,17.9c0.9,0,1.4,0.3,1.8,0.9c0.3,0.5,0.5,1.4,0.5,2.8v3.2c0,1.1-0.1,1.3-0.1,1.4
				c-0.1,0.3-0.4,0.4-0.9,0.5c-0.4,0.1-0.9,0.3-0.9,1.3c0,0.5,0.1,1,0.4,1.2c0.3,0.3,0.6,0.5,1,0.5c0.2,0,0.7,0,1.2-0.1
				s1.2-0.1,1.9-0.1c0.6,0,1,0,1.3,0.1l0.7,0.1c0.7,0.1,0.9,0.1,0.9,0.1c0.5,0,0.8-0.2,1.1-0.5c0.3-0.4,0.4-0.8,0.4-1.3
				c0-1.2-0.6-1.3-1.1-1.3c-0.2,0-0.3,0-0.3,0.1c-0.3,0.1-0.5,0.2-0.6,0.2c-0.9,0-0.9-1.3-0.9-1.8v-4.9c0-1.8-0.3-3.3-1-4
				c-0.9-1.2-2.2-1.8-4.1-1.8c-0.9,0-1.7,0.2-2.4,0.5c-0.7,0.3-1.5,0.9-2.5,1.7l-0.2,0.2l-0.2-0.3c-1-1.4-2.2-2.2-3.6-2.2
				c-1.7,0-3.5,0.9-4.9,2.7l-0.5,0.6v-2.1c0-0.6-0.2-0.7-0.5-0.7c-0.2,0-0.6,0-1.1,0.1s-0.9,0.1-1.2,0.1c-0.3,0-0.7,0-1-0.1
				c-0.7-0.1-0.9-0.2-1-0.2c-0.5,0-0.9,0.2-1.2,0.5c-0.3,0.4-0.5,0.8-0.5,1.2c0,1.2,0.7,1.4,1.2,1.4c0.1,0,0.2,0,0.5-0.1
				c0.4-0.1,0.5-0.1,0.6-0.1c0.7,0,0.8,1.1,0.8,2v4.9c0,1-0.1,2-0.8,2c-0.1,0-0.3,0-0.6-0.1c-0.2-0.1-0.3-0.1-0.5-0.1
				c-0.6,0-1.2,0.2-1.2,1.4c0,0.5,0.1,1,0.5,1.2c0.3,0.3,0.7,0.5,1.2,0.5c0.2,0,0.8-0.1,1.5-0.2c0.5-0.1,1-0.1,1.4-0.1
				c0.4,0,0.9,0,1.5,0.1s1.2,0.1,1.5,0.1c0.6,0,1.4-0.2,1.4-1.7c0-0.8-0.3-1.2-1-1.3c-0.4-0.1-0.7-0.2-0.8-0.3
				c-0.1-0.2-0.2-0.4-0.2-0.8v-3.6c0-2.6,1-3.9,3-3.9c0.8,0,1.3,0.3,1.7,0.8c0.3,0.5,0.5,1.3,0.5,2.6v3.5c0,0.1,0,0.5,0,1.1
				s-0.3,0.9-0.8,1c-0.3,0.1-0.8,0.3-0.8,1.3c0,1.4,0.7,1.6,1.2,1.6c0.2,0,0.6,0,1.1-0.1c0.5-0.1,0.9-0.1,1.2-0.1
				c0.2,0,0.7,0.1,1.3,0.2c0.4,0.1,0.7,0.1,0.9,0.1c0.6,0,1.4-0.2,1.4-1.8c0-1-0.4-1.2-0.8-1.2c-0.5-0.1-0.6-0.4-0.7-0.6
				c0-0.1-0.1-0.4-0.1-1.4v-2.9C149.9,19.1,150.8,17.9,152.7,17.9"/>
		</g>
	</g>
	<g>
		<g>
			<defs>
				<rect id="SVGID_7_" x="97.1" y="8" width="127.1" height="39.7"/>
			</defs>
			<clipPath id="SVGID_8_">
				<use xlink:href="#SVGID_7_"  style="overflow:visible;"/>
			</clipPath>
			<path class="st3" d="M189.3,26.6c-0.9,0-0.9-1.3-0.9-1.8v-4.6c0-1.8-0.3-3.3-1-4c-0.9-1.2-2.2-1.8-4.1-1.8
				c-0.9,0-1.7,0.2-2.4,0.5c-0.7,0.3-1.5,0.9-2.5,1.7l-0.2,0.2l-0.2-0.3c-1-1.4-2.2-2.2-3.6-2.2c-1.7,0-3.5,0.9-4.9,2.7l-0.5,0.6
				v-2.1c0-0.6-0.2-0.7-0.5-0.7c-0.2,0-0.6,0-1.1,0.1c-0.5,0.1-0.9,0.1-1.2,0.1s-0.7,0-1-0.1c-0.7-0.1-0.9-0.2-1-0.2
				c-0.5,0-0.9,0.2-1.2,0.5c-0.3,0.4-0.5,0.8-0.5,1.2c0,1.2,0.7,1.4,1.2,1.4c0.1,0,0.2,0,0.5-0.1c0.4-0.1,0.5-0.1,0.6-0.1
				c0.7,0,0.8,1.1,0.8,2v4.9c0,1-0.1,2-0.8,2c-0.1,0-0.3,0-0.6-0.1c-0.2-0.1-0.3-0.1-0.5-0.1c-0.6,0-1.2,0.2-1.2,1.4
				c0,0.5,0.1,1,0.5,1.2c0.3,0.3,0.7,0.5,1.2,0.5c0.2,0,0.8-0.1,1.5-0.2c0.5-0.1,1-0.1,1.4-0.1c0.4,0,0.9,0,1.5,0.1
				c0.7,0.1,1.2,0.1,1.5,0.1c0.6,0,1.4-0.2,1.4-1.7c0-0.8-0.3-1.2-1-1.3c-0.4-0.1-0.7-0.2-0.8-0.3c-0.1-0.2-0.2-0.4-0.2-0.8v-3.6
				c0-2.6,1-3.9,3-3.9c0.8,0,1.3,0.3,1.7,0.8c0.3,0.5,0.5,1.3,0.5,2.6v3.5c0,0.1,0,0.5,0,1.1s-0.3,0.9-0.8,1
				c-0.3,0.1-0.8,0.3-0.8,1.3c0,1.4,0.7,1.6,1.2,1.6c0.2,0,0.6,0,1.1-0.1c0.5-0.1,0.9-0.1,1.2-0.1c0.2,0,0.7,0.1,1.3,0.2
				c0.4,0.1,0.7,0.1,0.9,0.1c0.6,0,1.4-0.2,1.4-1.8c0-1-0.4-1.2-0.8-1.2c-0.5-0.1-0.6-0.4-0.7-0.6c0-0.1-0.1-0.4-0.1-1.4v-2.9
				c0-2.6,1-3.9,2.9-3.9"/>
		</g>
	</g>
	<g>
		<g>
			<defs>
				<rect id="SVGID_9_" x="97.1" y="8" width="127.1" height="39.7"/>
			</defs>
			<clipPath id="SVGID_10_">
				<use xlink:href="#SVGID_9_"  style="overflow:visible;"/>
			</clipPath>
			<path class="st4" d="M182.1,17.9c0.9,0,1.4,0.3,1.8,0.9c0.3,0.5,0.5,1.4,0.5,2.8v3.2c0,1.1-0.1,1.3-0.1,1.4
				c-0.1,0.3-0.4,0.4-0.9,0.5c-0.4,0.1-0.9,0.3-0.9,1.3c0,0.5,0.1,1,0.4,1.2c0.3,0.3,0.6,0.5,1,0.5c0.2,0,0.7,0,1.2-0.1
				c0.6-0.1,1.2-0.1,1.9-0.1c0.6,0,1,0,1.3,0.1l0.7,0.1c0.7,0.1,0.9,0.1,0.9,0.1c0.5,0,0.8-0.2,1.1-0.5c0.3-0.4,0.4-0.8,0.4-1.3
				c0-1.2-0.6-1.3-1.1-1.3c-0.2,0-0.3,0-0.3,0.1c-0.3,0.1-0.5,0.2-0.6,0.2"/>
		</g>
	</g>
	<g>
		<g>
			<defs>
				<rect id="SVGID_11_" x="97.1" y="8" width="127.1" height="39.7"/>
			</defs>
			<clipPath id="SVGID_12_">
				<use xlink:href="#SVGID_11_"  style="overflow:visible;"/>
			</clipPath>
			<path class="st5" d="M197.2,8c-0.7,0-1.2,0.2-1.7,0.8c-0.5,0.5-0.8,1.1-0.8,1.7c0,0.7,0.3,1.2,0.8,1.7c0.5,0.5,1.1,0.8,1.7,0.8
				s1.2-0.2,1.7-0.8c0.5-0.5,0.8-1.1,0.8-1.7c0-0.7-0.2-1.2-0.8-1.7C198.4,8.3,197.8,8,197.2,8 M197.2,29.4c0.8,0,1.4,0,2,0.1
				c1,0.1,1.4,0.2,1.6,0.2c0.7,0,1.5-0.2,1.5-1.8c0-1.2-0.6-1.3-1-1.3c-0.1,0-0.3,0-0.5,0.1c-0.3,0.1-0.5,0.1-0.5,0.1
				c-0.9,0-0.9-1.3-0.9-1.8v-9.2c0-1-0.4-1-0.6-1c0,0-0.2,0-0.9,0.1c-0.6,0.1-1.1,0.1-1.3,0.1c-0.5,0-1.1-0.1-1.7-0.2
				c-0.4-0.1-0.8-0.1-1-0.1c-0.5,0-0.9,0.2-1.2,0.5c-0.3,0.3-0.5,0.8-0.5,1.2c0,1.2,0.7,1.4,1.2,1.4c0.1,0,0.3,0,0.5-0.1
				c0.4-0.2,0.6-0.2,0.6-0.2c0.7,0,0.8,1.1,0.8,2v4.9c0,0.6,0,2-0.9,2c-0.1,0-0.2,0-0.3,0l-0.8-0.2c-0.6,0-1.2,0.2-1.2,1.4
				c0,0.5,0.2,1,0.5,1.2c0.3,0.3,0.7,0.5,1.2,0.5c0.3,0,0.9,0,1.5-0.1C196.2,29.4,196.8,29.4,197.2,29.4"/>
		</g>
	</g>
	<g>
		<g>
			<defs>
				<rect id="SVGID_13_" x="97.1" y="8" width="127.1" height="39.7"/>
			</defs>
			<clipPath id="SVGID_14_">
				<use xlink:href="#SVGID_13_"  style="overflow:visible;"/>
			</clipPath>
			<path class="st6" d="M206.1,9.2c-0.8,0-1.3,0.3-1.8,0.8c-0.5,0.6-0.8,1.2-0.8,2c0,1.4,0.7,2.3,2,2.7c0.8,0.2,0.9,0.6,0.9,0.9
				c0,0.4-0.2,1.2-1.8,3.5c-0.4,0.6-0.6,1.1-0.6,1.5c0,0.7,0.3,1,0.9,1c0.4,0,0.8-0.3,1.2-0.9c2.1-2.6,3.2-5.2,3.2-7.5
				c0-1.2-0.3-2.1-1-2.9C207.7,9.5,206.9,9.2,206.1,9.2"/>
		</g>
	</g>
	<g>
		<g>
			<defs>
				<rect id="SVGID_15_" x="97.1" y="8" width="127.1" height="39.7"/>
			</defs>
			<clipPath id="SVGID_16_">
				<use xlink:href="#SVGID_15_"  style="overflow:visible;"/>
			</clipPath>
			<path class="st7" d="M213.1,28l0.5,0.4c1.4,1.1,3,1.6,4.7,1.6c1.7,0,3.2-0.5,4.3-1.4s1.7-2.2,1.7-3.6c0-1-0.2-1.7-0.7-2.4
				c-0.4-0.5-0.9-1-1.4-1.2c-0.6-0.3-1.6-0.6-2.9-0.8c-1.7-0.3-2.7-0.5-3.1-0.7c-0.5-0.2-0.8-0.6-0.8-1.2c0-0.7,0.4-1.5,2-1.5
				c1.1,0,2,0.5,2.8,1.5c0.5,0.7,1.2,1.1,1.8,1.1c1,0,1.3-0.4,1.3-1.3v-0.9c0-0.3,0-0.4,0-0.5c0-0.4,0-0.7,0.1-1.1
				c0.1-0.3,0.1-0.6,0.1-0.8c0-0.4-0.2-0.9-1.2-0.9c-1.2,0-1.3,0.6-1.3,1.1V16l-0.4-0.3c-1.1-0.9-2.3-1.2-3.7-1.2
				c-1.5,0-2.8,0.5-3.7,1.3c-1,0.9-1.4,2-1.4,3.5c0,0.8,0.2,1.5,0.5,2.1c0.3,0.6,0.8,1.1,1.3,1.3c0.6,0.3,1.5,0.6,3,0.9l1.7,0.4
				c1.3,0.3,2,0.8,2,1.5c0,0.8-0.4,1.6-2.5,1.6c-0.9,0-1.5-0.1-2-0.4c-0.5-0.3-1-0.8-1.5-1.5c-0.3-0.4-0.6-0.7-0.9-0.9
				c-0.3-0.1-0.6-0.2-1.2-0.2c-1.2,0-1.4,0.6-1.4,1.1c0,0.2,0,0.5,0,0.8c0,0.4,0,0.7,0,0.9s0,0.6-0.1,1c0,0.4-0.1,0.8-0.1,1
				c0,0.5,0.2,1.1,1.3,1.1c0.9,0,1.2-0.4,1.2-1.2L213.1,28L213.1,28z"/>
		</g>
	</g>
	<g>
		<g>
			<defs>
				<rect id="SVGID_17_" x="97.1" y="8" width="127.1" height="39.7"/>
			</defs>
			<clipPath id="SVGID_18_">
				<use xlink:href="#SVGID_17_"  style="overflow:visible;"/>
			</clipPath>
			<path class="st8" d="M138.9,39.5c1.2,0,3-0.1,3-1.7c0-1.2-1.2-1.4-2.2-1.4c-0.5,0-1.2,0-1.6,0.1c-0.3,0.1-0.4,0.1-0.5,0.4
				c0,0.2,0,0.9,0,1.1C137.5,39.5,137.4,39.5,138.9,39.5 M138.7,40.4c-1.2,0-1.2,0.1-1.2,1.2v1.2c0,0.4-0.1,1.1,0.2,1.3
				c0.4,0.3,1.3,0.3,1.8,0.3c0.6,0,1.4-0.1,1.9-0.5c0.6-0.4,0.8-1,0.8-1.6c0-1.6-1.5-1.8-2.8-1.8H138.7z M136.3,38.6
				c0-0.5,0-1.3-0.1-1.7s-0.3-0.5-0.7-0.5c-0.2,0-0.5,0.1-0.7,0.1c-0.3,0-0.5-0.2-0.5-0.5c0-0.3,0.2-0.5,0.6-0.5
				c0.6,0,1.1,0.2,2,0.2c1.2,0,1.9-0.2,2.9-0.2c0.7,0,1.5,0.1,2.1,0.5c0.7,0.4,1.1,1.2,1.1,1.9c0,1.1-0.7,1.7-1.6,2l0,0
				c1.2,0.4,2.1,1.2,2.1,2.5c0,0.9-0.5,1.6-1.2,2.2c-0.8,0.6-1.7,0.7-2.6,0.7c-1.1,0-1.8-0.2-2.9-0.2c-0.9,0-1.5,0.2-2,0.2
				c-0.3,0-0.5-0.2-0.5-0.5s0.2-0.5,0.5-0.5c0.2,0,0.5,0.1,0.7,0.1c0.4,0,0.6-0.2,0.7-0.5c0.1-0.4,0.1-1.2,0.1-1.7L136.3,38.6
				L136.3,38.6z"/>
		</g>
	</g>
	<g>
		<g>
			<defs>
				<rect id="SVGID_19_" x="97.1" y="8" width="127.1" height="39.7"/>
			</defs>
			<clipPath id="SVGID_20_">
				<use xlink:href="#SVGID_19_"  style="overflow:visible;"/>
			</clipPath>
			<path class="st9" d="M145.8,39.9c0-0.9-0.2-1.2-0.5-1.2c-0.2,0-0.5,0.1-0.7,0.1c-0.3,0-0.5-0.2-0.5-0.5c0-0.3,0.3-0.5,0.7-0.5
				c0.3,0,0.6,0.2,0.8,0.2c0.3,0,0.6-0.2,0.8-0.2c0.4,0,0.5,0.2,0.5,0.6c0,1.2-0.1,1.5-0.1,2.4v0.7c0,0.5,0,1.4,0.2,1.9
				c0.2,0.7,0.9,1.1,1.6,1.1c0.9,0,1.6-0.4,1.8-1.2c0.2-0.6,0.2-1.6,0.2-2.3v-1c0-0.9-0.2-1.2-0.5-1.2c-0.2,0-0.5,0.1-0.7,0.1
				c-0.3,0-0.5-0.2-0.5-0.5s0.3-0.5,0.7-0.5c0.3,0,0.6,0.2,0.9,0.2c0.3,0,0.6-0.2,0.8-0.2c0.3,0,0.4,0.2,0.4,0.5c0,0.7,0,1.3,0,2.1
				v2.6c0,1,0.1,1.2,0.4,1.2c0.2,0,0.5-0.1,0.7-0.1c0.3,0,0.5,0.2,0.5,0.5c0,0.3-0.3,0.5-0.6,0.5c-0.3,0-0.6-0.2-0.8-0.2
				c-0.3,0-0.6,0.2-0.8,0.2c-0.3,0-0.4-0.3-0.4-0.9l0,0c-0.5,0.8-1.3,1.1-2.3,1.1c-0.7,0-1.3-0.2-1.8-0.6c-0.6-0.5-0.8-1.2-0.8-1.8
				C145.8,43,145.8,39.9,145.8,39.9z"/>
		</g>
	</g>
	<g>
		<g>
			<defs>
				<rect id="SVGID_21_" x="97.1" y="8" width="127.1" height="39.7"/>
			</defs>
			<clipPath id="SVGID_22_">
				<use xlink:href="#SVGID_21_"  style="overflow:visible;"/>
			</clipPath>
			<path class="st10" d="M155.2,39.9c0-1-0.1-1.2-0.4-1.2c-0.2,0-0.5,0.1-0.8,0.1s-0.5-0.2-0.5-0.5c0-0.3,0.3-0.5,0.7-0.5
				c0.3,0,0.5,0.2,0.8,0.2c0.4,0,0.6-0.2,0.8-0.2c0.4,0,0.4,0.3,0.4,0.9l0,0c0.5-0.7,1.2-1.1,2-1.1c1.2,0,2.2,0.7,2.2,2
				c0,0.7-0.3,1.4-1.2,1.4c-0.4,0-0.8-0.3-0.8-0.7c0-0.3,0.3-0.6,0.6-0.6c0.1,0,0.1,0,0.2,0c0.1-0.1,0.1-0.2,0.1-0.3
				c0-0.7-0.7-1-1.2-1c-1.1,0-1.7,0.6-1.7,2.7v1.9c0,1.1,0.2,1.2,0.5,1.2c0.2,0,0.5-0.1,0.7-0.1c0.3,0,0.5,0.2,0.5,0.5
				s-0.3,0.5-0.6,0.5c-0.5,0-0.9-0.2-1.4-0.2c-0.6,0-0.9,0.2-1.4,0.2c-0.3,0-0.7-0.2-0.7-0.5s0.2-0.5,0.5-0.5c0.2,0,0.4,0.1,0.7,0.1
				s0.4-0.2,0.4-1.2v-3.4H155.2z"/>
		</g>
	</g>
	<g>
		<g>
			<defs>
				<rect id="SVGID_23_" x="97.1" y="8" width="127.1" height="39.7"/>
			</defs>
			<clipPath id="SVGID_24_">
				<use xlink:href="#SVGID_23_"  style="overflow:visible;"/>
			</clipPath>
			<path class="st11" d="M166,40c0-0.9-0.8-1.4-1.6-1.4s-1.6,0.6-1.6,1.4c0,1,0.7,1.4,1.5,1.4C165.2,41.5,166,41,166,40 M162.6,44.5
				c-0.4,0.2-0.8,0.6-0.8,1.1c0,0.6,0.5,0.9,0.9,1.1c0.5,0.2,1.1,0.2,1.4,0.2c0.8,0,2.4-0.2,2.4-1.3s-1.5-1.2-2.4-1.2
				C163.9,44.2,163.1,44.3,162.6,44.5 M163.9,43.3c0.8,0,1.5,0,2.3,0.3c0.9,0.3,1.6,1,1.6,1.9c0,1.8-2.2,2.2-3.6,2.2
				c-1.3,0-3.5-0.4-3.5-2.2c0-0.9,0.6-1.4,1.3-1.6l0,0c-0.7-0.2-1.2-0.6-1.2-1.3s0.5-1.2,1.2-1.4c-0.3-0.3-0.4-0.8-0.4-1.2
				c0-1.4,1.3-2.3,2.7-2.3c0.3,0,0.6,0,0.9,0.1c0-0.9,0.8-1.4,1.6-1.4c0.8,0,1.5,0.4,1.5,1.2c0,0.4-0.3,0.8-0.8,0.8
				c-0.3,0-0.6-0.2-0.6-0.6c0-0.2,0.2-0.4,0.3-0.5c-0.1-0.2-0.4-0.3-0.6-0.3c-0.6,0-0.8,0.5-0.8,1c0.7,0.4,1.1,1.2,1.1,2
				c0,1.5-1.3,2.4-2.7,2.4c-0.6,0-1.1-0.2-1.6-0.4c-0.1,0-0.3-0.1-0.4-0.1c-0.3,0-0.5,0.3-0.5,0.6c0,0.7,1,0.7,1.4,0.7h0.7V43.3z"/>
		</g>
	</g>
	<g>
		<g>
			<defs>
				<rect id="SVGID_25_" x="97.1" y="8" width="127.1" height="39.7"/>
			</defs>
			<clipPath id="SVGID_26_">
				<use xlink:href="#SVGID_25_"  style="overflow:visible;"/>
			</clipPath>
			<path class="st12" d="M174,40.7c-0.1-1.2-0.8-2-2-2c-1.2,0-2,0.9-2.1,2H174z M169.7,41.7c-0.1,1.4,0.7,2.7,2.2,2.7
				c1,0,1.6-0.5,1.9-1.3c0.1-0.3,0.2-0.6,0.6-0.6c0.3,0,0.6,0.2,0.6,0.6c0,0.6-0.4,1.2-0.9,1.6c-0.6,0.6-1.4,0.8-2.3,0.8
				c-2.2,0-3.4-1.6-3.4-3.7c0-1,0.2-2,0.9-2.7c0.7-0.8,1.5-1.2,2.6-1.2c1.9,0,3.2,1.3,3.2,3.3c0,0.7,0,0.8-0.7,0.8
				C174.5,41.7,169.7,41.7,169.7,41.7z"/>
		</g>
	</g>
	<g>
		<g>
			<defs>
				<rect id="SVGID_27_" x="97.1" y="8" width="127.1" height="39.7"/>
			</defs>
			<clipPath id="SVGID_28_">
				<use xlink:href="#SVGID_27_"  style="overflow:visible;"/>
			</clipPath>
			<path class="st13" d="M177.6,39.9c0-1-0.1-1.2-0.4-1.2c-0.2,0-0.5,0.1-0.8,0.1c-0.3,0-0.5-0.2-0.5-0.5c0-0.3,0.3-0.5,0.7-0.5
				c0.3,0,0.5,0.2,0.8,0.2c0.4,0,0.6-0.2,0.8-0.2c0.4,0,0.4,0.3,0.4,0.9l0,0c0.5-0.7,1.2-1.1,2-1.1c1.2,0,2.3,0.7,2.3,2
				c0,0.7-0.3,1.4-1.2,1.4c-0.4,0-0.8-0.3-0.8-0.7c0-0.3,0.3-0.6,0.6-0.6c0.1,0,0.1,0,0.2,0c0.1-0.1,0.1-0.2,0.1-0.3
				c0-0.7-0.7-1-1.2-1c-1.1,0-1.7,0.6-1.7,2.7v1.9c0,1.1,0.2,1.2,0.5,1.2c0.2,0,0.5-0.1,0.7-0.1c0.3,0,0.5,0.2,0.5,0.5
				s-0.3,0.5-0.6,0.5c-0.5,0-0.9-0.2-1.4-0.2s-1,0.2-1.4,0.2c-0.3,0-0.7-0.2-0.7-0.5s0.2-0.5,0.5-0.5c0.2,0,0.4,0.1,0.7,0.1
				c0.3,0,0.4-0.2,0.4-1.2v-3.4H177.6z"/>
		</g>
	</g>
	<g>
		<g>
			<defs>
				<rect id="SVGID_29_" x="97.1" y="8" width="127.1" height="39.7"/>
			</defs>
			<clipPath id="SVGID_30_">
				<use xlink:href="#SVGID_29_"  style="overflow:visible;"/>
			</clipPath>
			<path class="st14" d="M193.8,38.6c0-0.5,0-1.3-0.1-1.7s-0.3-0.5-0.7-0.5c-0.2,0-0.5,0.1-0.7,0.1c-0.3,0-0.5-0.2-0.5-0.5
				c0-0.4,0.3-0.5,0.6-0.5c0.6,0,1.2,0.2,1.9,0.2c0.7,0,1.2-0.2,1.9-0.2c0.4,0,0.7,0.2,0.7,0.5c0,0.3-0.2,0.5-0.5,0.5
				c-0.2,0-0.5-0.1-0.7-0.1c-0.4,0-0.6,0.2-0.7,0.5c-0.1,0.4-0.1,1.2-0.1,1.7v0.9c0,1.1,0.1,3.1-0.3,4c-0.6,1.2-2,1.9-3.4,1.9
				c-1.7,0-3.5-0.9-3.5-2.9c0-1.2,0.9-2.1,2-2.1c0.8,0,1.3,0.4,1.3,1.2c0,0.4-0.4,0.9-0.8,0.9c-0.4,0-0.7-0.2-0.7-0.6
				c0-0.2,0.1-0.3,0.2-0.4c-0.1-0.1-0.1-0.1-0.2-0.1c-0.5,0-0.8,0.7-0.8,1.1c0,1.2,1.1,1.9,2.2,1.9c0.8,0,1.6-0.3,2.1-1.1
				c0.5-0.8,0.5-1.6,0.5-2.5C193.8,40.9,193.8,38.6,193.8,38.6z"/>
		</g>
	</g>
	<g>
		<g>
			<defs>
				<rect id="SVGID_31_" x="97.1" y="8" width="127.1" height="39.7"/>
			</defs>
			<clipPath id="SVGID_32_">
				<use xlink:href="#SVGID_31_"  style="overflow:visible;"/>
			</clipPath>
			<path class="st15" d="M200.2,44.4c1.7,0,2.3-1.4,2.3-3c0-0.7-0.1-1.4-0.5-2c-0.4-0.6-1.1-0.8-1.7-0.8c-0.8,0-1.3,0.3-1.8,1
				c-0.3,0.6-0.5,1.2-0.5,1.9C198,42.9,198.6,44.4,200.2,44.4 M200.2,37.7c1.1,0,1.9,0.3,2.6,1.1c0.6,0.8,0.9,1.8,0.9,2.8
				c0,2.1-1.2,3.8-3.5,3.8c-2.2,0-3.4-1.8-3.4-3.8C196.9,39.5,197.9,37.7,200.2,37.7"/>
		</g>
	</g>
	<g>
		<g>
			<defs>
				<rect id="SVGID_33_" x="97.1" y="8" width="127.1" height="39.7"/>
			</defs>
			<clipPath id="SVGID_34_">
				<use xlink:href="#SVGID_33_"  style="overflow:visible;"/>
			</clipPath>
			<path class="st16" d="M207.1,36.4c0,0.5-0.4,0.8-0.8,0.8c-0.5,0-0.8-0.4-0.8-0.8c0-0.5,0.4-0.8,0.8-0.8
				C206.7,35.6,207.1,35.9,207.1,36.4 M206,39.9c0-1-0.1-1.2-0.4-1.2c-0.2,0-0.5,0.1-0.7,0.1c-0.3,0-0.5-0.2-0.5-0.5
				c0-0.3,0.2-0.5,0.5-0.5c0.4,0,0.6,0.2,1,0.2c0.4,0,0.6-0.2,0.8-0.2c0.3,0,0.4,0.3,0.4,0.6v5.2c0,0.4,0.1,0.6,0.4,0.6
				c0.2,0,0.4-0.1,0.6-0.1c0.3,0,0.5,0.2,0.5,0.5s-0.3,0.5-0.6,0.5c-0.5,0-0.9-0.2-1.4-0.2c-0.6,0-1,0.2-1.4,0.2
				c-0.2,0-0.5-0.3-0.5-0.5c0-0.3,0.2-0.5,0.5-0.5c0.2,0,0.4,0.1,0.7,0.1s0.4-0.3,0.4-1.2C206,43.1,206,39.9,206,39.9z"/>
		</g>
	</g>
	<g>
		<g>
			<defs>
				<rect id="SVGID_35_" x="97.1" y="8" width="127.1" height="39.7"/>
			</defs>
			<clipPath id="SVGID_36_">
				<use xlink:href="#SVGID_35_"  style="overflow:visible;"/>
			</clipPath>
			<path class="st17" d="M210.5,40c0-1-0.1-1.2-0.4-1.2c-0.2,0-0.5,0.1-0.7,0.1c-0.3,0-0.5-0.2-0.5-0.5s0.3-0.5,0.5-0.5
				c0.3,0,0.4,0.2,0.8,0.2c0.4,0,0.6-0.2,0.9-0.2c0.3,0,0.3,0.3,0.3,0.9l0,0c0.6-0.8,1.4-1.1,2.3-1.1c0.8,0,1.4,0.3,2,0.8
				c0.6,0.6,0.7,1.2,0.7,2v2.6c0,0.9,0.1,1.2,0.4,1.2c0.2,0,0.5-0.1,0.7-0.1c0.3,0,0.5,0.2,0.5,0.5c0,0.3-0.2,0.5-0.6,0.5
				c-0.5,0-0.8-0.2-1.4-0.2c-0.7,0-1,0.2-1.5,0.2c-0.4,0-0.6-0.2-0.6-0.5c0-0.3,0.2-0.5,0.5-0.5c0.2,0,0.4,0.1,0.7,0.1
				c0.4,0,0.4-0.3,0.4-1.2v-2.1c0-0.9,0-1.2-0.2-1.6c-0.3-0.6-1-0.8-1.5-0.8c-0.7,0-1.3,0.3-1.7,0.8c-0.2,0.3-0.4,0.6-0.4,2v1.6
				c0,0.9,0.1,1.2,0.4,1.2c0.2,0,0.5-0.1,0.7-0.1c0.3,0,0.5,0.2,0.5,0.5s-0.2,0.5-0.6,0.5c-0.5,0-0.8-0.2-1.4-0.2s-1,0.2-1.5,0.2
				c-0.4,0-0.6-0.2-0.6-0.5s0.2-0.5,0.5-0.5c0.2,0,0.4,0.1,0.7,0.1c0.4,0,0.4-0.3,0.4-1.2L210.5,40L210.5,40z"/>
		</g>
	</g>
	<g>
		<g>
			<defs>
				<rect id="SVGID_37_" x="97.1" y="8" width="127.1" height="39.7"/>
			</defs>
			<clipPath id="SVGID_38_">
				<use xlink:href="#SVGID_37_"  style="overflow:visible;"/>
			</clipPath>
			<path class="st18" d="M219.2,39.4c0-0.4-0.1-0.5-0.5-0.5c-0.6,0-0.8-0.1-0.8-0.5c0-0.2,0.2-0.5,0.6-0.5h0.5
				c0.3,0,0.3-0.1,0.3-0.5v-1.2c0-0.4,0.1-0.7,0.6-0.7c0.5,0,0.6,0.3,0.6,0.7v1.3c0,0.2,0,0.2,0.2,0.2h1.4c0.6,0,0.7,0.2,0.7,0.5
				s-0.1,0.5-0.8,0.5h-1.2c-0.3,0-0.4,0-0.4,0.3v3.4c0,1.2,0.3,1.6,1.1,1.6c0.9,0,1-0.7,1-1.3v-0.5c0-0.7,0.2-0.9,0.6-0.9
				s0.5,0.4,0.5,0.7c0,1.6-0.3,3.1-2.2,3.1c-0.7,0-1.3-0.2-1.6-0.9c-0.2-0.4-0.3-0.8-0.3-1.9L219.2,39.4L219.2,39.4z"/>
		</g>
	</g>
</g>
<path class="st19" d="M6,6.5c-6.6,0-4.7,6.5-4.7,6.5c0.3,3,8.3,12.3,8.8,17.6l0,1.5c0.3,4.4-4.8,10-4.7,14.3
	c0.3,8.2,13.3,5.7,13.3,5.7c1.2,0,10.5-2.7,12.1-3.2c2.7-0.7,6.2-2.8,11.4-2.1C47,47.3,56.4,51,56.4,51c0.1-0.1,16.7,7.3,18.6-4
	c0.7-4-5.1-9.2-4.7-14.5C71,24,82.2,15.3,83.6,9.6c0.1-0.2,3.1-10.3-9.1-9.2C60.5,3,49.7,15.1,41.2,15.1C28.4,15.1,13.3,6.5,6,6.5"
	/>
<path class="st20" d="M26,40.5c-0.5,1.4-1.7,2.5-3.2,3.2c-1.3,0.6-2.6,1-4.1,1.1L15.2,45l6.2-14.4v-0.1c0-0.1-0.1-0.3-0.2-0.4
	c-0.2-0.1-0.3-0.2-0.5-0.2l-7,0.5c-0.3,0-0.5-0.2-0.5-0.6c0-0.4,0.2-0.6,0.6-0.7l8.7-0.6c1.4-0.1,2.2,0.1,2.6,0.4
	c0.6-0.5,1.6-0.9,2.8-1c0.7,0,1.4,0,1.9,0.2c0.7,0.2,1.1,0.6,1.1,1.2c0,0.2,0,0.4-0.1,0.6L30.1,31c-0.3,0.9-1,1.6-1.7,2.2
	c-0.9,0.6-1.6,1.2-2.6,1.4c1.1,0.2,1.6,0.9,1.6,1.9c0,0.4-0.4,1.7-0.6,2.1L26,40.5 M26.5,32.3l0.7-1.7c0.1-0.2,0.1-0.3,0.1-0.4
	c0-0.5-0.3-0.7-0.9-0.6c-0.7,0-1.3,0.5-1.6,1.3l-1.7,4.1C24.9,33.9,26,33.1,26.5,32.3 M22.9,40.3l0.6-1.4c0.1-0.2,0.5-1.4,0.5-1.6
	c0-0.7-0.5-1.3-1.5-1.6l-3,7c0,0.1-0.1,0.2-0.1,0.2c0,0.1,0.1,0.2,0.2,0.2c0.2,0,0.5-0.1,0.9-0.3C21.8,42.1,22.5,41.2,22.9,40.3"/>
<path class="st20" d="M38.1,38.7c-0.4,0.9-1.2,1.7-2.5,2.5c-1.3,0.7-2.3,1.2-3.4,1.3c-0.5,0-0.7-0.2-0.9-0.6
	c-0.5,0.5-1.2,0.7-1.8,0.9c-1.6,0.1-2.5-0.3-2.5-1.5c0-0.5,0.2-1.3,0.6-2.2l1.9-4.4l3-0.2l-2.6,6c-0.1,0.2-0.2,0.4-0.1,0.6
	c0,0.2,0.1,0.3,0.3,0.3c0.3,0,0.6-0.3,0.9-1l2.6-5.8l3.1-0.2l-2.2,5.2c-0.1,0.1-0.1,0.2-0.1,0.3c0,0.2,0.1,0.3,0.3,0.3
	c0.4,0,1-0.3,1.6-0.9s1.1-1.1,1.3-1.5L38.1,38.7L38.1,38.7 M36.9,31.1l-2.7,2l-1.9,0.1l2-2L36.9,31.1z"/>
<path class="st20" d="M43.9,38.2c-0.4,1-1.3,1.8-2.5,2.6c-1.1,0.6-2.1,1.1-3.1,1.2c-0.7,0-1.3-0.1-1.8-0.4c-0.5-0.3-0.7-0.9-0.7-1.6
	c0-0.2,0-0.4,0.1-0.6l4.2-9.7c0.3-0.9,1-1.5,1.6-1.9c0.6-0.4,1.4-0.6,2.2-0.7c0.5,0,1.1,0,1.5,0.2c0.5,0.2,0.9,0.5,0.9,1
	c0,0.1,0,0.3-0.1,0.4l-1.5,3.4c-0.9,2-2.3,3.5-4.4,4.5l-1.2,2.8c0,0.1,0,0.2,0,0.3c0,0.3,0.2,0.5,0.7,0.4c0.6,0,1.3-0.3,2-0.9
	c0.7-0.5,1.3-1.1,1.5-1.7L43.9,38.2 M42.9,32.2l1.5-3.3v-0.1c0-0.1-0.1-0.2-0.3-0.2c-0.2,0-0.4,0.1-0.5,0.4
	c-0.5,1.2-1.3,2.9-2.2,5.2C41.8,34,42.5,33.3,42.9,32.2"/>
<path class="st20" d="M50.3,37.8c-0.4,1-1.3,1.8-2.5,2.6c-1.1,0.6-2.1,1.1-3.1,1.2c-0.7,0-1.3-0.1-1.8-0.4s-0.7-0.9-0.7-1.6
	c0-0.2,0-0.4,0.1-0.6l4.2-9.7c0.3-0.9,0.9-1.5,1.6-1.9c0.6-0.4,1.4-0.6,2.2-0.7c0.5,0,1.1,0,1.5,0.2c0.5,0.2,0.9,0.5,0.9,1
	c0,0.1,0,0.3-0.1,0.5L51,31.6c-0.9,2-2.3,3.5-4.4,4.5l-1.2,2.8c0,0,0,0.1,0,0.2c0,0.3,0.2,0.5,0.7,0.4c0.6,0,1.3-0.3,2-0.9
	c0.7-0.5,1.3-1.1,1.5-1.7L50.3,37.8 M49.4,31.6l1.5-3.3v-0.1c0-0.1-0.1-0.2-0.3-0.2s-0.4,0.1-0.5,0.4c-0.5,1.2-1.3,2.9-2.2,5.2
	C48.4,33.5,48.9,32.8,49.4,31.6"/>
<path class="st20" d="M59.6,37.2c-0.4,0.9-1.3,1.7-2.6,2.6c-1.3,0.7-2.3,1.2-3.4,1.3c-0.5,0-0.7-0.2-0.9-0.6
	c-0.5,0.5-1.2,0.7-1.8,0.9c-1.6,0.1-2.3-0.4-2.3-1.5c0-0.5,0.2-1.3,0.6-2.2l0.3-0.7c0.4-1.1,1.1-2,1.8-2.8c0.9-0.9,1.8-1.4,2.9-1.4
	c0.7,0,1.3,0.1,1.7,0.6l0.2-0.4l2-0.1l-1,2.3c-0.3,0.7-0.7,1.8-1.4,3.2c-0.1,0.1-0.1,0.2-0.1,0.3c0,0.2,0.1,0.3,0.3,0.3
	c0.4,0,1-0.3,1.6-0.9c0.6-0.5,1.1-1.1,1.3-1.5L59.6,37.2 M52.4,38.8l1.9-4.6c0-0.1,0-0.1,0-0.1c0-0.2-0.1-0.2-0.4-0.2
	c-0.3,0-0.5,0.2-0.6,0.4l-1.9,4.4c-0.1,0.2-0.1,0.4-0.1,0.6c0,0.2,0.1,0.3,0.3,0.3C51.9,39.7,52.2,39.4,52.4,38.8"/>
<path class="st20" d="M67.9,38.6c-0.3,0.9-1.2,1.7-2.5,2.5c-1.3,0.7-2.3,1.2-3.4,1.3c-0.2,0-0.4,0-0.6-0.1c-0.5-0.2-0.7-0.5-0.7-1.1
	c0-0.3,0.1-0.5,0.2-1l2.7-6.6c0-0.1,0-0.2,0-0.2c0-0.2-0.1-0.2-0.3-0.2c-0.3,0-0.5,0.2-0.7,0.5l-2.9,6.8l-3.3,0.2l4-9.1l2,1
	c0.6-0.6,1.5-1.1,2.6-1.2c1.1-0.1,1.6,0.4,1.6,1.5c0,0.5-0.1,1.2-0.4,1.8l-1.8,4.7c-0.1,0.1-0.1,0.3-0.1,0.3c0,0.2,0.1,0.3,0.3,0.3
	c0.4,0,1-0.3,1.6-0.9c0.6-0.5,1.1-1.1,1.3-1.5L67.9,38.6L67.9,38.6"/>
<polygon class="st20" points="20.5,19 19.7,24.6 18.9,24.6 19.2,22 18,22 17.7,24.6 16.9,24.6 17.5,19 18.5,19 18.1,21.4 19.2,21.4 
	19.5,19 "/>
<path class="st20" d="M23.9,22.7l-0.1-2.6L23,22.7H23.9z M24.9,24.6H24v-1.4h-1.1l-0.4,1.4h-1l1.9-5.6h1L24.9,24.6z"/>
<polygon class="st20" points="31.5,19 30.7,24.6 29.9,24.6 30.2,21.6 28.9,23.5 28.8,23.5 28,21.6 27.6,24.6 26.7,24.6 27.4,19 
	27.7,19 29,22 31.1,19 "/>
<path class="st20" d="M35.1,22.4c0-0.1,0-0.2-0.1-0.3C34.9,22,34.8,22,34.7,22H34l-0.2,1.9h0.6c0.1,0,0.2,0,0.3-0.1
	c0.1-0.1,0.1-0.2,0.2-0.3L35.1,22.4 M35.3,20.1c0-0.1,0-0.2-0.1-0.3c-0.1-0.1-0.2-0.1-0.3-0.1h-0.6L34,21.3h0.7c0.1,0,0.2,0,0.3-0.1
	s0.1-0.2,0.2-0.3V20.1z M36.3,20.4c-0.1,0.6-0.3,1.1-0.7,1.3c0.1,0.1,0.2,0.1,0.3,0.2s0.1,0.2,0.1,0.4c0,0.2,0,0.4,0,0.7
	c-0.1,0.6-0.2,1-0.5,1.3c-0.2,0.2-0.5,0.3-0.9,0.3h-1.7l0.6-5.6h1.7C36.1,19,36.4,19.5,36.3,20.4"/>
<path class="st20" d="M40.2,20.1c0-0.1,0-0.2-0.1-0.3c-0.1-0.1-0.2-0.1-0.3-0.1h-0.2c-0.1,0-0.2,0-0.3,0.1s-0.2,0.2-0.2,0.3
	l-0.4,3.4c0,0.1,0,0.2,0.1,0.3c0.1,0.1,0.2,0.1,0.3,0.1h0.2c0.1,0,0.2,0,0.3-0.1c0.1-0.1,0.1-0.2,0.2-0.3L40.2,20.1 M41.2,20.1
	l-0.4,3.4c0,0.3-0.2,0.6-0.4,0.9c-0.2,0.2-0.5,0.3-0.9,0.3H39c-0.3,0-0.6-0.1-0.7-0.3c-0.2-0.2-0.3-0.5-0.2-0.9l0.4-3.4
	c0-0.3,0.2-0.6,0.4-0.9c0.2-0.2,0.5-0.3,0.9-0.3h0.4c0.3,0,0.6,0.1,0.7,0.3C41.1,19.5,41.2,19.8,41.2,20.1"/>
<path class="st20" d="M45.2,20.2c0-0.1,0-0.2-0.1-0.3c-0.1-0.1-0.2-0.1-0.3-0.1h-0.6l-0.2,1.7h0.6c0.1,0,0.2,0,0.3-0.1
	s0.1-0.2,0.2-0.3L45.2,20.2 M46.1,20.2L46,20.9c0,0.2-0.1,0.3-0.2,0.5c-0.1,0.2-0.3,0.3-0.4,0.4c0.1,0.1,0.2,0.2,0.3,0.4
	c0.1,0.2,0.1,0.3,0.1,0.5l-0.2,1.5c0,0.1,0,0.1,0.1,0.2c0,0,0.1,0.1,0.2,0.1v0.1h-1.2l0.2-1.9c0-0.1,0-0.2-0.1-0.3
	c-0.1-0.1-0.2-0.1-0.3-0.1h-0.6l-0.3,2.3h-0.9l0.6-5.6H45c0.3,0,0.6,0.1,0.7,0.3C46,19.6,46.1,19.9,46.1,20.2"/>
<path class="st20" d="M51.1,20.1L51,20.8c0,0,0,0.1-0.1,0.1h-0.7c0,0-0.1,0-0.1-0.1l0.1-0.7c0-0.1,0-0.2-0.1-0.3
	c-0.1-0.1-0.2-0.1-0.3-0.1h-0.2c-0.1,0-0.2,0-0.3,0.1S49.1,20,49,20.1l-0.3,3.4c0,0.1,0,0.2,0.1,0.3c0.1,0.1,0.2,0.1,0.4,0.1
	s0.3-0.1,0.4-0.2c0.1-0.1,0.2-0.3,0.2-0.5l0.1-1h-0.6l0.1-0.6h1.5l-0.3,2.8c0,0.1-0.1,0.1-0.2,0.1c0,0-0.1,0-0.1-0.1l-0.1-0.1
	c0,0-0.1-0.1-0.2-0.1c0,0-0.1,0-0.2,0.1c-0.1,0.1-0.2,0.1-0.3,0.2s-0.2,0.1-0.4,0.1h-0.2c-0.3,0-0.6-0.1-0.7-0.3
	c-0.2-0.2-0.3-0.5-0.2-0.9l0.4-3.4c0-0.3,0.2-0.6,0.4-0.9c0.2-0.2,0.5-0.3,0.9-0.3h0.5c0.3,0,0.6,0.1,0.7,0.3
	C51,19.5,51.1,19.8,51.1,20.1"/>
<path class="st20" d="M54.7,22.7l-0.1-2.6l-0.7,2.6H54.7z M55.6,24.6h-0.9v-1.4h-1.1l-0.4,1.4h-1l1.9-5.6h0.9L55.6,24.6z"/>
<path class="st20" d="M60,20.2c0-0.1,0-0.2-0.1-0.3c-0.1-0.1-0.2-0.1-0.3-0.1h-0.6l-0.2,1.7h0.6c0.1,0,0.2,0,0.3-0.1
	c0.1-0.1,0.1-0.2,0.2-0.3L60,20.2 M60.9,20.2l-0.1,0.7c0,0.2-0.1,0.3-0.2,0.5c-0.1,0.2-0.3,0.3-0.4,0.4c0.1,0.1,0.2,0.2,0.3,0.4
	c0.1,0.2,0.1,0.3,0.1,0.5l-0.1,1.4c0,0.1,0,0.1,0.1,0.2c0,0,0.1,0.1,0.2,0.1v0.1h-1.2l0.2-1.9c0-0.1,0-0.2-0.1-0.3
	c-0.1-0.1-0.2-0.1-0.3-0.1h-0.6l-0.4,2.2h-0.9l0.6-5.6h1.7c0.3,0,0.6,0.1,0.7,0.3C60.9,19.6,61,19.9,60.9,20.2"/>
<path class="st20" d="M64.5,22.7l-0.1-2.6l-0.7,2.6H64.5z M65.4,24.6h-0.9v-1.4h-1.1l-0.4,1.4h-1l1.9-5.6h1L65.4,24.6z"/>
</svg>
